<svg xmlns="http://www.w3.org/2000/svg" width="80" height="80" viewBox="0 0 80 80">
  <g id="icon_newgame_spock" transform="translate(-605 -2281)">
    <g id="Ellipse_29" data-name="Ellipse 29" transform="translate(605 2281)" fill="#e1e4ed" stroke="#b3b6c6" stroke-width="10">
      <circle cx="40" cy="40" r="40" stroke="none"/>
      <circle cx="40" cy="40" r="35" fill="none"/>
    </g>
    <path id="Path_40" data-name="Path 40" d="M50.776,37.788l-.49-.488a3.838,3.838,0,0,0-4.518-.6l-3.056,1.736.638-13.906A2.128,2.128,0,0,0,40.5,22.54l.076-.746a2.158,2.158,0,0,0-4.3-.266L34.318,33.3c-.026.16-.3.144-.334.043l-2.316-9.442a2.074,2.074,0,0,0-3.611-.712,2.037,2.037,0,0,0-.392,1.749l.45,1.9a1.9,1.9,0,0,0-.759.1,1.956,1.956,0,0,0-1.322,2.166L27.4,36.9a21.361,21.361,0,0,0,1,6.714,7.791,7.791,0,0,1,.086,4.59L27.423,51.88a.69.69,0,0,0,.666.878H40.575a.693.693,0,0,0,.658-.908,8.565,8.565,0,0,1-.038-4.221c.7-.562,3.134-2.533,4.009-3.328,1.447-1.314,5.411-5.373,5.579-5.546a.686.686,0,0,0-.007-.968Z" transform="translate(609.391 2284.545)" fill="#8a90ac"/>
  </g>
</svg>
