<svg xmlns="http://www.w3.org/2000/svg" width="80" height="80" viewBox="0 0 80 80">
  <g id="icon_newgame_scissors" transform="translate(-365.231 -2281.231)">
    <g id="Ellipse_27" data-name="Ellipse 27" transform="translate(365.231 2281.231)" fill="#e1e4ed" stroke="#b3b6c6" stroke-width="10">
      <circle cx="40" cy="40" r="40" stroke="none"/>
      <circle cx="40" cy="40" r="35" fill="none"/>
    </g>
    <path id="Path_38" data-name="Path 38" d="M27.318,35.438l3.437-4.8a6.978,6.978,0,0,0-6.2,1.847c-3.386,3.367-4.758,10.641-5.043,12.4l8.606,8.558c1.55-.132,8.41-1.043,15.02-7.615.07-.142,1.68-1.325.364-2.634a1.645,1.645,0,0,0-2.31.026.813.813,0,0,1-1.155.011.8.8,0,0,1,.011-1.149l2.336-2.322A1.607,1.607,0,0,0,40.8,37.064l-1.913,1.628a.809.809,0,1,1-1.05-1.229c6.679-5.827,5.7-5.125,10-9.13a1.536,1.536,0,1,0-2-2.334l-10.4,9.295a.813.813,0,0,1-1.064-.011.769.769,0,0,1-.127-1.056L41.5,23.017a1.329,1.329,0,1,0-2.143-1.574L28.638,36.353a.812.812,0,0,1-1.135.2.785.785,0,0,1-.185-1.113Z" transform="translate(371.236 2284.262)" fill="#8a90ac"/>
  </g>
</svg>
